name C:\Users\u0101727\Documents\MyRepositories\upper-imu-dc\Results\main_tracking\Case_42\FLX01_orientations_groundFrame.mot
datacolumns 13
datarows 25
range 3.51000000 3.75000000
endheader 
time	radius_imu_[0][0]	radius_imu_[0][1]	radius_imu_[0][2]	radius_imu_[1][0]	radius_imu_[1][1]	radius_imu_[1][2]	radius_imu_[2][0]	radius_imu_[2][1]	radius_imu_[2][2]	radius_imu_x	radius_imu_y	radius_imu_z	
          3.51000000	          0.95302309	         -0.11513697	         -0.28016149	         -0.04716249	         -0.97006273	          0.23823096	         -0.29920341	         -0.21382650	         -0.92992233	         -2.89080254	         -0.28396233	          0.12022968	
          3.52000000	          0.95322889	         -0.11565011	         -0.27924851	         -0.04781686	         -0.96996832	          0.23848482	         -0.29844300	         -0.21397783	         -0.93013185	         -2.89060059	         -0.28301139	          0.12073451	
          3.53000000	          0.95342397	         -0.11618998	         -0.27835700	         -0.04848586	         -0.96986678	          0.23876253	         -0.29771102	         -0.21414554	         -0.93032781	         -2.89037118	         -0.28208308	          0.12126804	
          3.54000000	          0.95360880	         -0.11675555	         -0.27748586	         -0.04916884	         -0.96975819	          0.23906375	         -0.29700621	         -0.21432964	         -0.93051068	         -2.89011480	         -0.28117621	          0.12182913	
          3.55000000	          0.95378422	         -0.11734625	         -0.27663246	         -0.04986606	         -0.96964262	          0.23938791	         -0.29632590	         -0.21452984	         -0.93068142	         -2.88983230	         -0.28028804	          0.12241709	
          3.56000000	          0.95395133	         -0.11796203	         -0.27579309	         -0.05057858	         -0.96952013	          0.23973429	         -0.29566649	         -0.21474562	         -0.93084136	         -2.88952477	         -0.27941469	          0.12303169	
          3.57000000	          0.95411124	         -0.11860341	         -0.27496358	         -0.05130818	         -0.96939076	          0.24010213	         -0.29502409	         -0.21497626	         -0.93099194	         -2.88919332	         -0.27855183	          0.12367333	
          3.58000000	          0.95426486	         -0.11927159	         -0.27414022	         -0.05205714	         -0.96925445	          0.24049087	         -0.29439536	         -0.21522104	         -0.93113440	         -2.88883890	         -0.27769556	          0.12434311	
          3.59000000	          0.95441261	         -0.11996846	         -0.27332059	         -0.05282806	         -0.96911107	          0.24090025	         -0.29377844	         -0.21547924	         -0.93126952	         -2.88846197	         -0.27684338	          0.12504293	
          3.60000000	          0.95455416	         -0.12069669	         -0.27250442	         -0.05362366	         -0.96896033	          0.24133045	         -0.29317376	         -0.21575030	         -0.93139731	         -2.88806236	         -0.27599500	          0.12577554	
          3.61000000	          0.95468832	         -0.12145971	         -0.27169422	         -0.05444661	         -0.96880179	          0.24178224	         -0.29258465	         -0.21603385	         -0.93151683	         -2.88763906	         -0.27515304	          0.12654463	
          3.62000000	          0.95481286	         -0.12226174	         -0.27089568	         -0.05529942	         -0.96863487	          0.24225703	         -0.29201776	         -0.21632976	         -0.93162603	         -2.88719014	         -0.27432338	          0.12735483	
          3.63000000	          0.95492456	         -0.12310780	         -0.27011766	         -0.05618445	         -0.96845877	          0.24275690	         -0.29148309	         -0.21663811	         -0.93172181	         -2.88671273	         -0.27351524	          0.12821170	
          3.64000000	          0.95501927	         -0.12400368	         -0.26937200	         -0.05710390	         -0.96827258	          0.24328453	         -0.29099370	         -0.21695922	         -0.93180007	         -2.88620303	         -0.27274087	          0.12912176	
          3.65000000	          0.95509208	         -0.12495590	         -0.26867293	         -0.05805999	         -0.96807517	          0.24384320	         -0.29056523	         -0.21729356	         -0.93185587	         -2.88565649	         -0.27201503	          0.13009236	
          3.66000000	          0.95513749	         -0.12597167	         -0.26803641	         -0.05905505	         -0.96786530	          0.24443662	         -0.29021523	         -0.21764168	         -0.93188369	         -2.88506789	         -0.27135429	          0.13113168	
          3.67000000	          0.95514964	         -0.12705882	         -0.26747940	         -0.06009165	         -0.96764159	          0.24506887	         -0.28996236	         -0.21800416	         -0.93187768	         -2.88443163	         -0.27077617	          0.13224861	
          3.68000000	          0.95512251	         -0.12822570	         -0.26701901	         -0.06117279	         -0.96740255	          0.24574416	         -0.28982559	         -0.21838149	         -0.93183188	         -2.88374185	         -0.27029840	          0.13345260	
          3.69000000	          0.95505017	         -0.12948108	         -0.26667177	         -0.06230193	         -0.96714663	          0.24646675	         -0.28982348	         -0.21877394	         -0.93174047	         -2.88299272	         -0.26993809	          0.13475355	
          3.70000000	          0.95492687	         -0.13083400	         -0.26645289	         -0.06348315	         -0.96687224	          0.24724070	         -0.28997339	         -0.21918152	         -0.93159803	         -2.88217864	         -0.26971099	          0.13616168	
          3.71000000	          0.95474729	         -0.13229365	         -0.26637569	         -0.06472115	         -0.96657776	          0.24806978	         -0.29029087	         -0.21960381	         -0.93139969	         -2.88129448	         -0.26963090	          0.13768732	
          3.72000000	          0.95450661	         -0.13386922	         -0.26645104	         -0.06602129	         -0.96626159	          0.24895727	         -0.29078913	         -0.22003992	         -0.93114130	         -2.88033572	         -0.26970908	          0.13934078	
          3.73000000	          0.95420065	         -0.13556974	         -0.26668700	         -0.06738959	         -0.96592221	          0.24990583	         -0.29147857	         -0.22048838	         -0.93081960	         -2.87929869	         -0.26995389	          0.14113220	
          3.74000000	          0.95382593	         -0.13740401	         -0.26708844	         -0.06883270	         -0.96555813	          0.25091742	         -0.29236647	         -0.22094712	         -0.93043227	         -2.87818066	         -0.27037044	          0.14307139	
          3.75000000	          0.95337971	         -0.13938042	         -0.26765691	         -0.07035790	         -0.96516796	          0.25199320	         -0.29345679	         -0.22141343	         -0.92997807	         -2.87697991	         -0.27096039	          0.14516772	
